<svg width="17" height="17" viewBox="0 0 17 17" fill="none" xmlns="http://www.w3.org/2000/svg">
    <path d="M2.83334 4.25H14.1667L13.0475 14.3225C13.0091 14.6691 12.8443 14.9895 12.5844 15.2221C12.3246 15.4547 11.9881 15.5834 11.6393 15.5833H5.36068C5.01192 15.5834 4.67541 15.4547 4.41558 15.2221C4.15575 14.9895 3.99087 14.6691 3.95251 14.3225L2.83334 4.25Z" stroke="#777480" stroke-width="2" stroke-linecap="round" stroke-linejoin="round"/>
    <path d="M5.20271 2.22915C5.31728 1.98616 5.49858 1.78077 5.72546 1.63692C5.95234 1.49306 6.21544 1.41668 6.48408 1.41669H10.5159C10.7847 1.41655 11.0479 1.49287 11.2749 1.63673C11.502 1.78059 11.6834 1.98606 11.798 2.22915L12.75 4.25002H4.25L5.20271 2.22915Z" stroke="#777480" stroke-width="2" stroke-linecap="round" stroke-linejoin="round"/>
    <path d="M1.41667 4.25H15.5833" stroke="#777480" stroke-width="2" stroke-linecap="round" stroke-linejoin="round"/>
    <path d="M7.08334 7.79169V11.3334" stroke="#777480" stroke-width="2" stroke-linecap="round" stroke-linejoin="round"/>
    <path d="M9.91667 7.79169V11.3334" stroke="#777480" stroke-width="2" stroke-linecap="round" stroke-linejoin="round"/>
</svg>